<?xml version="1.0" encoding="utf-8"?>
<!-- Generator: Adobe Illustrator 23.0.3, SVG Export Plug-In . SVG Version: 6.00 Build 0)  -->
<svg version="1.1" id="Calque_1" xmlns="http://www.w3.org/2000/svg" xmlns:xlink="http://www.w3.org/1999/xlink" x="0px" y="0px"
	 viewBox="0 0 295.9 190.9" style="enable-background:new 0 0 295.9 190.9;" xml:space="preserve">
<style type="text/css">
	.st0{fill:#F95E32;}
	.st1{fill:#FFFFFF;}
</style>
<path d="M717.6,389.8c-50.5,0-91.5,40.9-91.5,91.5s40.9,91.5,91.5,91.5s91.5-40.9,91.5-91.5S768.1,389.8,717.6,389.8z M717.6,548.1
	c-36.9,0-66.9-29.9-66.9-66.9s29.9-66.9,66.9-66.9s66.9,29.9,66.9,66.9S754.5,548.1,717.6,548.1z"/>
<path class="st0" d="M717.6,414.4c-36.9,0-66.9,29.9-66.9,66.9s29.9,66.9,66.9,66.9s66.9-29.9,66.9-66.9S754.5,414.4,717.6,414.4z
	 M717.6,534.9c-29.7,0-53.7-24.1-53.7-53.7s24.1-53.7,53.7-53.7s53.7,24.1,53.7,53.7S747.2,534.9,717.6,534.9z"/>
<g>
	<path class="st1" d="M12,100.2v-0.1l63.5-78.8h0.1v62.4h11.9v16.5H75.6V122H53.7v-21.8H12z M54.8,69.2L43.2,84.6l-2.1-0.9h12.6
		V68.1L54.8,69.2z"/>
</g>
<g>
	<g>
		<path class="st1" d="M150.7,122c-5.7,0-11.1-1-16.1-3c-5.1-2-9.5-5.1-13.4-9.2c-3.9-4.1-6.9-9.4-9.1-15.8
			c-2.2-6.3-3.3-13.8-3.3-22.4c0-9.6,1-17.6,3.2-24.1c2.1-6.4,5-11.6,8.8-15.5c3.8-3.9,8.2-6.7,13.3-8.3s10.7-2.5,16.7-2.5
			c5.7,0,11.1,1,16.1,3c5,2,9.5,5.1,13.3,9.2c3.8,4.2,6.9,9.4,9.1,15.8c2.2,6.4,3.3,13.8,3.3,22.4c0,8.9-1.1,16.6-3.3,23
			c-2.2,6.4-5.3,11.6-9.2,15.7c-3.9,4-8.4,7-13.3,8.9C161.8,121,156.4,122,150.7,122z M150.6,101.1c5,0,8.9-1.3,11.7-4
			c2.8-2.6,4.8-6.3,5.9-10.9c1.1-4.6,1.7-9.7,1.7-15.3c0-5.5-0.6-10.4-1.7-14.7c-1.2-4.3-3.1-7.7-5.9-10.3
			c-2.8-2.5-6.7-3.8-11.7-3.8c-4.9,0-8.8,1.3-11.5,3.9c-2.8,2.6-4.8,6.1-5.9,10.5c-1.1,4.4-1.6,9.4-1.6,14.9c0,5.5,0.5,10.5,1.6,15
			c1.1,4.5,3,8.1,5.9,10.7C141.8,99.8,145.7,101.1,150.6,101.1z"/>
	</g>
</g>
<g>
	<path d="M150.7,103c-3.6,0-6.9-0.6-10.1-1.9c-3.1-1.2-5.9-3.2-8.3-5.8c-2.4-2.6-4.3-5.9-5.7-9.8c-1.4-4-2.1-8.6-2.1-14
		c0-6,0.7-11,2-15c1.3-4,3.1-7.3,5.5-9.7c2.3-2.4,5.1-4.2,8.3-5.2c3.2-1,6.6-1.5,10.4-1.5c3.6,0,6.9,0.6,10.1,1.9
		c3.1,1.2,5.9,3.2,8.3,5.8c2.4,2.6,4.3,5.9,5.7,9.8c1.4,4,2.1,8.6,2.1,14c0,5.6-0.7,10.3-2.1,14.3c-1.4,4-3.3,7.3-5.7,9.8
		c-2.4,2.5-5.2,4.4-8.3,5.6C157.6,102.4,154.3,103,150.7,103z M150.6,90c3.1,0,5.6-0.8,7.3-2.5c1.7-1.7,3-3.9,3.7-6.8
		c0.7-2.9,1.1-6,1.1-9.5c0-3.4-0.4-6.5-1.1-9.2c-0.7-2.7-2-4.8-3.7-6.4c-1.7-1.6-4.2-2.4-7.3-2.4c-3.1,0-5.5,0.8-7.2,2.4
		c-1.7,1.6-3,3.8-3.6,6.5c-0.7,2.7-1,5.8-1,9.3c0,3.4,0.3,6.5,1,9.4c0.7,2.8,1.9,5,3.6,6.7C145.2,89.2,147.6,90,150.6,90z"/>
</g>
<g>
	<g>
		<path class="st1" d="M209.4,100.2v-0.1l63.5-78.8h0.2v62.4h11.8v16.5H273V122h-21.9v-21.8H209.4z M252.1,69.2l-11.5,15.4l-2.1-0.9
			h12.6V68.1L252.1,69.2z"/>
	</g>
</g>
<g>
	<path class="st1" d="M90.7,170.7l-18.8-17l1.4,0.8l0.1,15.1h-4.9V144h0.2l18.4,16.9l-1.1-0.5l-0.1-15.4h4.9v25.8H90.7z"/>
	<path class="st1" d="M95.3,162.2c0-1.5,0.4-2.8,1.1-4c0.7-1.2,1.7-2.1,3-2.8s2.7-1,4.4-1c1.7,0,3.1,0.3,4.4,1
		c1.2,0.7,2.2,1.6,2.8,2.8c0.7,1.2,1,2.5,1,4c0,1.5-0.3,2.9-1,4.1c-0.7,1.2-1.6,2.1-2.8,2.8c-1.2,0.7-2.7,1-4.4,1
		c-1.6,0-3.1-0.3-4.3-0.9c-1.3-0.6-2.3-1.5-3-2.7C95.7,165.3,95.3,163.8,95.3,162.2z M100.1,162.2c0,0.8,0.2,1.5,0.5,2.1
		s0.7,1.1,1.3,1.5c0.5,0.4,1.1,0.5,1.8,0.5c0.7,0,1.4-0.2,1.9-0.5c0.5-0.4,1-0.8,1.2-1.5c0.3-0.6,0.4-1.3,0.4-2.1
		c0-0.8-0.1-1.5-0.4-2.1c-0.3-0.6-0.7-1.1-1.2-1.4c-0.5-0.4-1.2-0.5-1.9-0.5c-0.7,0-1.3,0.2-1.8,0.5c-0.5,0.4-1,0.8-1.3,1.4
		S100.1,161.4,100.1,162.2z"/>
	<path class="st1" d="M117.1,148.5h4.7v6.4h3.6v3.7h-3.6v11.1h-4.7v-11.1h-2.3v-3.7h2.3V148.5z"/>
	<path class="st1" d="M140.6,144.9h15.5v4.7h-10.6v5.6h9.2v4.7h-9.2v9.7h-4.9V144.9z"/>
	<path class="st1" d="M157.6,162.2c0-1.5,0.4-2.8,1.1-4c0.7-1.2,1.7-2.1,3-2.8s2.7-1,4.4-1c1.7,0,3.1,0.3,4.4,1
		c1.2,0.7,2.2,1.6,2.8,2.8c0.7,1.2,1,2.5,1,4c0,1.5-0.3,2.9-1,4.1c-0.7,1.2-1.6,2.1-2.8,2.8c-1.2,0.7-2.7,1-4.4,1
		c-1.6,0-3.1-0.3-4.3-0.9c-1.3-0.6-2.3-1.5-3-2.7C157.9,165.3,157.6,163.8,157.6,162.2z M162.3,162.2c0,0.8,0.2,1.5,0.5,2.1
		s0.7,1.1,1.3,1.5c0.5,0.4,1.1,0.5,1.8,0.5c0.7,0,1.4-0.2,1.9-0.5c0.5-0.4,1-0.8,1.2-1.5c0.3-0.6,0.4-1.3,0.4-2.1
		c0-0.8-0.1-1.5-0.4-2.1c-0.3-0.6-0.7-1.1-1.2-1.4c-0.5-0.4-1.2-0.5-1.9-0.5c-0.7,0-1.3,0.2-1.8,0.5c-0.5,0.4-1,0.8-1.3,1.4
		S162.3,161.4,162.3,162.2z"/>
	<path class="st1" d="M182.6,170.4c-1.3,0-2.4-0.4-3.3-1.2c-0.9-0.8-1.4-1.9-1.4-3.2v-11h4.7v9.3c0,0.7,0.2,1.2,0.5,1.6
		c0.3,0.4,0.8,0.6,1.5,0.6c0.7,0,1.3-0.2,1.8-0.7c0.5-0.5,0.9-1.1,1.2-1.9c0.3-0.8,0.4-1.7,0.4-2.8v-6h4.7v14.7h-4.3l-0.4-2.7
		l0.1,0.3c-0.3,0.6-0.8,1.1-1.3,1.6c-0.5,0.5-1.1,0.8-1.8,1.1C184.3,170.3,183.5,170.4,182.6,170.4z"/>
	<path class="st1" d="M201.8,155l0.4,2.6l-0.1-0.2c0.5-0.9,1.2-1.7,2.2-2.2s2.1-0.9,3.5-0.9c1.4,0,2.6,0.4,3.5,1.2
		c0.9,0.8,1.4,1.9,1.4,3.2v11H208v-9.3c0-0.6-0.2-1.2-0.5-1.6c-0.3-0.4-0.9-0.6-1.6-0.6c-0.7,0-1.3,0.2-1.9,0.7
		c-0.5,0.5-1,1.1-1.2,1.9c-0.3,0.8-0.4,1.7-0.4,2.8v6h-4.7V155H201.8z"/>
	<path class="st1" d="M223.5,170.1c-1.4,0-2.6-0.3-3.7-1c-1.1-0.6-1.9-1.6-2.5-2.8c-0.6-1.2-0.9-2.6-0.9-4.3c0-1.7,0.3-3.1,1-4.2
		c0.7-1.2,1.6-2.1,2.8-2.7c1.2-0.6,2.5-0.9,4-0.9c0.9,0,1.8,0.1,2.7,0.4c0.9,0.3,1.6,0.7,2.2,1.3v1.5v-14.4h4.7v26.5H229v-2.9l0.4,1
		c-0.8,0.6-1.6,1.2-2.6,1.6C225.8,169.9,224.7,170.1,223.5,170.1z M225.1,166.1c0.6,0,1.2-0.1,1.7-0.3c0.5-0.2,0.9-0.4,1.3-0.7
		c0.4-0.3,0.7-0.7,1-1.2v-3.6c-0.2-0.5-0.5-0.9-0.8-1.3c-0.4-0.3-0.8-0.6-1.3-0.8c-0.5-0.2-1.1-0.3-1.7-0.3c-0.7,0-1.3,0.2-1.9,0.5
		c-0.6,0.3-1.1,0.8-1.4,1.4c-0.4,0.6-0.5,1.3-0.5,2.1c0,0.8,0.2,1.5,0.5,2.1c0.4,0.6,0.8,1.1,1.4,1.5
		C223.7,166,224.4,166.1,225.1,166.1z"/>
</g>
</svg>
